<svg width="22" height="22" viewBox="0 0 22 22" fill="none" xmlns="http://www.w3.org/2000/svg">
    <path fill-rule="evenodd" clip-rule="evenodd" d="M21.0849 6.19502L13.0991 5.02681C12.8508 4.99921 12.6006 4.9929 12.3512 5.00797C12.4146 5.06377 12.4621 5.13527 12.4889 5.21523L13.5067 8.83022C13.5958 9.14515 13.1153 9.55968 12.4268 9.75079L1.0475 12.8543C0.709192 12.9604 0.352306 12.9943 0 12.9539C0.0242975 13.1639 0.24028 13.3496 0.645239 13.4492L11.7141 16.2379C12.686 16.4828 13.8739 16.2379 14.3167 15.7157L21.9434 6.78989C22.154 6.5584 21.7571 6.29461 21.0849 6.19502Z" fill="#242748"/>
    <path fill-rule="evenodd" clip-rule="evenodd" d="M0.0361006 12.5745C-0.177849 12.7158 0.607535 12.6859 1.11939 12.5446L11.9523 9.56987C12.6158 9.38786 13.0762 8.99122 12.9895 8.68696L12.02 5.22323C11.9171 5.01133 11.8548 4.95156 11.7221 5.0385C6.29751 8.49408 2.33809 11.0776 0.0361006 12.5745Z" fill="#242748"/>
</svg>
